<?xml version="1.0"?>
<!--Icons from directory ""-->
<svg
  xmlns="http://www.w3.org/2000/svg"
  viewBox="0 0 119 60"
>
<style xmlns="http://www.w3.org/2000/svg">
    :root>svg{display:none}
    :root>svg:target{display:block}
</style>
<svg fill="none" id="instagram">
    <path
      d="M25.576 7.58c-1.039 0-1.943.858-1.943 1.897 0 1.04.904 1.943 1.943 1.943 1.04 0 1.898-.858 1.898-1.943s-.813-1.898-1.898-1.898z"
      fill="#E4C9AB"
    />
    <path
      d="M33.44 2.066c-.543-.632-1.176-1.04-1.989-1.175-.045 0-.09-.045-.136-.045H2.937c-.587.136-1.175.362-1.672.768C.633 2.157.225 2.79.045 3.603c0 .045-.045.135-.045.18v28.379c.136.632.362 1.22.813 1.717.543.632 1.175 1.04 1.989 1.175.045 0 .09.045.135.045h28.378c.588-.136 1.175-.362 1.672-.768.633-.543 1.04-1.175 1.22-1.989 0-.045.046-.135.046-.18V3.783c-.181-.632-.407-1.22-.814-1.717zm-7.818 30.14H8.63c-3.57 0-5.739-2.213-5.739-5.783V9.387c0-3.525 2.214-5.74 5.694-5.74h17.126c3.48 0 5.694 2.215 5.694 5.74v17.036c-.045 3.57-2.26 5.784-5.784 5.784z"
      fill="#E4C9AB"
    />
    <path
      d="M17.127 9.748a8.177 8.177 0 00-8.225 8.134 8.177 8.177 0 008.134 8.224 8.206 8.206 0 008.224-8.134c.046-4.564-3.57-8.179-8.133-8.224zm-.046 12.969c-2.666 0-4.79-2.124-4.744-4.79 0-2.62 2.123-4.745 4.79-4.745 2.666 0 4.79 2.124 4.744 4.79-.045 2.621-2.169 4.745-4.79 4.745z"
      fill="#E4C9AB"
    />
    </svg>
  <svg fill="none" id="logoText">
    <path
      d="M77.02 50.528c.48 0 .8-.16 1.121-.4.32-.241.4-.642.4-1.042 0-1.762-.32-3.284-.96-4.645-.641-1.362-1.602-2.403-2.883-3.204-1.28-.801-2.722-1.121-4.483-1.121-1.762 0-3.283.4-4.644 1.2a8.424 8.424 0 00-3.203 3.285c-.8 1.361-1.12 2.963-1.12 4.805 0 1.842.4 3.364 1.2 4.806a8.834 8.834 0 003.363 3.284c1.441.8 3.042 1.201 4.884 1.201a9.32 9.32 0 003.203-.56c1.12-.401 2.081-.882 2.802-1.442.4-.32.56-.641.56-1.041 0-.401-.24-.801-.64-1.122-.32-.24-.64-.4-1.041-.32-.4 0-.72.16-1.121.4-.48.32-1.04.641-1.761.881-.721.24-1.442.4-2.082.4-1.281 0-2.402-.24-3.363-.8-.96-.56-1.761-1.282-2.322-2.243a8.521 8.521 0 01-.72-2.002v-.16c-.08-.32-.16-1.122 0-2.083 0-.4.16-1.04.24-1.201.08-.4.24-.801.4-1.201.48-.962 1.121-1.762 2.082-2.323.88-.56 2.001-.801 3.282-.801 1.121 0 2.082.24 2.803.8.8.482 1.36 1.202 1.841 2.083.32.641.48 1.282.56 2.083h-8.086c-.72 0-1.281.64-1.281 1.361s.56 1.362 1.361 1.362h-.08 9.688v-.24zM1.999 58.457c-.48 0-.881-.16-1.201-.48-.32-.321-.48-.722-.48-1.202V34.109c0-.481.16-.962.48-1.282.32-.32.72-.48 1.2-.48.481 0 .962.16 1.282.48.32.32.48.72.48 1.282v9.61h13.852v-9.61c0-.481.16-.962.48-1.282.32-.32.72-.48 1.201-.48.48 0 .96.16 1.201.48.32.32.48.72.48 1.282v22.586c0 .48-.16.88-.48 1.201-.32.32-.72.48-1.201.48-.48 0-.88-.16-1.201-.48-.32-.32-.48-.72-.48-1.201v-9.932H3.76v9.932c0 .48-.16.88-.48 1.201-.4.4-.8.56-1.281.56zM32.584 58.617c-1.602 0-3.043-.4-4.404-1.201a8.581 8.581 0 01-3.043-3.284c-.72-1.362-1.12-2.964-1.12-4.726s.4-3.364 1.2-4.725c.801-1.442 1.922-2.483 3.283-3.284 1.361-.8 2.963-1.201 4.724-1.201 1.762 0 3.283.4 4.644 1.201a9.213 9.213 0 013.283 3.284c.8 1.442 1.2 2.963 1.2 4.725h-1.2c0 1.762-.4 3.364-1.121 4.726a8.58 8.58 0 01-3.043 3.284c-1.28.8-2.802 1.2-4.403 1.2zm.72-3.044c1.121 0 2.162-.24 3.043-.8.88-.561 1.601-1.282 2.081-2.243.48-.961.801-2.002.801-3.204 0-1.201-.24-2.242-.8-3.203-.48-.962-1.202-1.682-2.082-2.243-.881-.56-1.922-.801-3.043-.801-1.12 0-2.082.24-3.042.8a6.453 6.453 0 00-2.162 2.244c-.56.96-.8 2.002-.8 3.203 0 1.202.24 2.243.8 3.204.56.961 1.201 1.682 2.162 2.242.88.561 1.921.801 3.042.801zm7.446 2.884c-.48 0-.88-.16-1.2-.48-.32-.321-.481-.722-.481-1.202v-5.126l.64-3.524 2.803 1.201v7.449c0 .48-.16.88-.48 1.201-.4.32-.801.48-1.282.48zM52.36 58.457c-.72 0-1.201-.4-1.602-1.122l-7.045-14.897c-.16-.4-.16-.72-.08-1.121.16-.4.4-.64.88-.881.4-.24.801-.24 1.121-.08.4.16.72.4.881.8l6.645 14.257h-1.6l6.565-14.256c.24-.4.48-.641.88-.801.4-.16.801-.08 1.281.08.4.16.64.48.801.8.16.401.08.722-.08 1.122l-7.046 14.897c-.4.801-.88 1.202-1.601 1.202zM82.865 58.457c-.48 0-.88-.16-1.201-.48-.32-.321-.48-.722-.48-1.202V41.878c0-.481.16-.962.48-1.202.32-.32.72-.48 1.201-.48.48 0 .96.16 1.201.48.32.32.48.721.48 1.202v14.897c0 .48-.16.88-.48 1.201-.24.32-.64.48-1.201.48zm13.771 0c-.48 0-.88-.16-1.2-.48-.32-.321-.481-.722-.481-1.202v-8.17c0-1.281-.24-2.322-.72-3.123a4.524 4.524 0 00-1.922-1.762c-.8-.4-1.682-.561-2.722-.561-.961 0-1.762.16-2.563.56-.72.401-1.36.882-1.841 1.522-.48.641-.64 1.362-.64 2.163h-2.082c0-1.442.32-2.643 1.04-3.764.641-1.122 1.602-2.003 2.803-2.644 1.2-.64 2.482-.96 4.003-.96s2.882.32 4.083.96c1.201.641 2.162 1.602 2.883 2.884.72 1.281 1.04 2.803 1.04 4.645v8.25c0 .48-.16.88-.48 1.201-.32.32-.72.48-1.2.48zM107.606 58.617a12.89 12.89 0 01-4.323-.72c-1.362-.481-2.322-1.122-3.123-1.843-.32-.32-.48-.801-.4-1.202.08-.48.24-.8.64-1.12.481-.321.881-.481 1.281-.481.401 0 .801.24 1.121.56.401.4.961.801 1.842 1.202.8.4 1.761.56 2.802.56 1.281 0 2.242-.24 2.962-.64.641-.4 1.041-.962 1.041-1.602 0-.641-.32-1.282-.96-1.762-.641-.48-1.842-.881-3.603-1.202-2.242-.48-3.844-1.12-4.884-2.002-1.041-.881-1.522-2.002-1.522-3.284 0-1.121.321-2.082 1.041-2.803.641-.72 1.521-1.282 2.562-1.682 1.041-.4 2.162-.56 3.283-.56 1.441 0 2.802.24 3.923.72s2.002 1.122 2.722 1.922c.321.32.481.721.401 1.122 0 .4-.24.72-.561.96-.32.241-.8.321-1.281.241-.48-.08-.88-.32-1.201-.64-.56-.561-1.121-.882-1.841-1.122-.641-.24-1.361-.32-2.242-.32-.961 0-1.842.16-2.482.48-.641.32-1.041.801-1.041 1.442 0 .4.08.8.32 1.121.24.32.641.641 1.281.881.641.24 1.522.48 2.723.721 1.681.32 2.962.721 3.923 1.282.961.48 1.681 1.12 2.082 1.762.4.64.64 1.441.64 2.322 0 1.041-.24 1.922-.801 2.804-.56.88-1.361 1.441-2.402 2.002-1.04.64-2.322.88-3.923.88zM2.103 26.504c-.48 0-.88-.16-1.2-.48-.321-.321-.481-.722-.481-1.202V2.156c0-.481.16-.962.48-1.282.32-.32.72-.48 1.201-.48.48 0 .961.16 1.281.48.32.32.48.72.48 1.282v9.61h13.852v-9.61c0-.481.16-.962.48-1.282.32-.32.721-.48 1.201-.48.48 0 .961.16 1.202.48.32.32.48.72.48 1.282v22.586c0 .48-.16.88-.48 1.201-.32.32-.721.48-1.201.48-.48 0-.881-.16-1.201-.48-.32-.32-.48-.72-.48-1.201V14.81H3.864v9.932c0 .48-.16.88-.48 1.201-.401.4-.801.56-1.282.56zM32.208 26.664c-1.521 0-2.882-.32-4.083-.961s-2.162-1.602-2.883-2.884c-.72-1.281-1.04-2.803-1.04-4.645v-8.25c0-.48.16-.88.48-1.2.32-.321.72-.481 1.201-.481.48 0 .88.16 1.201.48.32.32.48.721.48 1.202v8.25c0 1.28.24 2.242.721 3.123.48.8 1.121 1.441 1.922 1.842.8.4 1.681.56 2.722.56.96 0 1.841-.16 2.562-.56.72-.4 1.361-.881 1.761-1.522.48-.64.641-1.361.641-2.162h2.082c0 1.361-.32 2.643-1.041 3.764-.64 1.121-1.601 2.002-2.802 2.643a9.774 9.774 0 01-3.924.8zm7.366-.16c-.48 0-.88-.16-1.2-.48-.32-.321-.481-.722-.481-1.202V9.925c0-.481.16-.962.48-1.202.32-.32.721-.48 1.201-.48.48 0 .961.16 1.201.48.32.32.48.721.48 1.202v14.897c0 .48-.16.88-.48 1.201-.24.32-.64.48-1.2.48zM51.584 26.664a12.89 12.89 0 01-4.324-.721c-1.361-.48-2.322-1.121-3.122-1.842-.32-.32-.48-.801-.4-1.201.08-.481.24-.801.64-1.122.48-.32.88-.48 1.28-.48.401.08.801.24 1.122.56.4.4.96.801 1.841 1.202.8.4 1.762.56 2.802.56 1.282 0 2.242-.24 2.963-.64.64-.4 1.04-.962 1.04-1.602 0-.641-.32-1.282-.96-1.762-.64-.48-1.842-.881-3.603-1.202-2.242-.48-3.843-1.121-4.884-2.002-1.04-.881-1.521-2.002-1.521-3.284 0-1.121.32-2.082 1.04-2.803.641-.72 1.522-1.282 2.563-1.682 1.04-.4 2.162-.56 3.282-.56 1.442 0 2.803.24 3.924.72 1.12.48 2.001 1.122 2.722 1.922.32.32.48.721.4 1.122 0 .4-.24.72-.56.96-.32.241-.8.321-1.281.241-.48-.08-.881-.32-1.201-.64-.56-.561-1.121-.882-1.842-1.122-.64-.24-1.36-.32-2.242-.32-.96 0-1.841.16-2.482.48-.64.32-1.04.801-1.04 1.442 0 .4.08.8.32 1.121.24.32.64.641 1.28.881.641.24 1.522.48 2.723.721 1.681.32 2.962.72 3.923 1.282.961.56 1.682 1.12 2.082 1.762.4.64.64 1.441.64 2.322 0 1.041-.24 1.922-.8 2.803-.56.801-1.361 1.442-2.402 2.003-1.04.56-2.322.88-3.923.88zM63.114 26.504c-.48 0-.88-.16-1.201-.48-.32-.321-.48-.722-.48-1.202V2.156c0-.481.16-.962.48-1.202.32-.32.72-.48 1.201-.48.48 0 .96.16 1.201.48.32.32.48.721.48 1.202v22.666c0 .48-.16.88-.48 1.201-.24.32-.72.48-1.201.48zm0 0c-.48 0-.88-.16-1.201-.48-.32-.321-.48-.722-.48-1.202V9.925c0-.481.16-.962.48-1.202.32-.32.72-.48 1.201-.48.48 0 .96.16 1.201.48.32.32.48.721.48 1.202v14.897c0 .48-.16.88-.48 1.201-.24.32-.72.48-1.201.48zm13.691 0c-.48 0-.88-.16-1.2-.48-.321-.321-.481-.722-.481-1.202v-8.17c0-1.281-.24-2.322-.72-3.123a4.524 4.524 0 00-1.922-1.762c-.8-.4-1.682-.561-2.722-.561-.961 0-1.762.16-2.563.56-.72.401-1.36.882-1.841 1.522-.48.641-.64 1.362-.64 2.163h-2.082c0-1.442.32-2.643 1.04-3.764.641-1.122 1.602-2.003 2.803-2.643 1.2-.641 2.482-.962 4.003-.962s2.882.32 4.084.962c1.2.64 2.161 1.601 2.882 2.883.72 1.281 1.04 2.803 1.04 4.645v8.25c0 .48-.16.88-.48 1.201-.24.32-.64.48-1.2.48zM109.872 26.664c-1.761 0-3.283-.4-4.724-1.202a9.207 9.207 0 01-3.282-3.283c-.801-1.442-1.201-2.964-1.201-4.726s.4-3.364 1.12-4.725a8.586 8.586 0 013.043-3.284c1.281-.8 2.722-1.201 4.404-1.201 1.281 0 2.562.24 3.603.8 1.121.561 2.081 1.282 2.802 2.243v-9.13c0-.481.16-.962.48-1.202.321-.32.721-.48 1.201-.48.481 0 .961.16 1.201.48.321.32.481.721.481 1.202v15.217c0 1.762-.401 3.364-1.201 4.726a9.218 9.218 0 01-3.283 3.283c-1.361.881-2.882 1.282-4.644 1.282zm0-3.044c1.121 0 2.162-.24 3.043-.8.88-.561 1.601-1.282 2.081-2.243.481-.961.801-2.003.801-3.204s-.24-2.242-.801-3.204c-.48-.96-1.201-1.681-2.081-2.242-.881-.56-1.922-.801-3.043-.801-1.121 0-2.082.24-3.042.8a6.447 6.447 0 00-2.162 2.243c-.561.962-.801 2.003-.801 3.204s.24 2.243.801 3.204c.56.961 1.201 1.682 2.162 2.242.96.561 1.921.801 3.042.801zM96.741 18.575c.48 0 .8-.16 1.121-.4.32-.241.4-.642.4-1.042 0-1.762-.32-3.284-.96-4.645-.64-1.362-1.602-2.403-2.883-3.204-1.28-.801-2.722-1.122-4.483-1.122-1.762 0-3.283.4-4.644 1.202a8.422 8.422 0 00-3.203 3.284c-.8 1.441-1.12 2.963-1.12 4.805 0 1.842.4 3.364 1.2 4.806a8.836 8.836 0 003.363 3.284c1.441.8 3.043 1.201 4.884 1.201 1.04 0 2.082-.16 3.203-.56 1.12-.401 2.081-.882 2.802-1.442.4-.32.56-.641.56-1.042 0-.4-.24-.8-.64-1.12-.32-.241-.64-.401-1.04-.321-.401 0-.722.16-1.122.4-.48.32-1.04.641-1.761.881-.72.24-1.442.4-2.082.4-1.281 0-2.402-.24-3.363-.8-.96-.56-1.761-1.282-2.322-2.243a8.52 8.52 0 01-.72-2.002v-.16c-.08-.32-.16-1.122 0-2.083 0-.4.16-1.04.24-1.201.08-.4.24-.801.4-1.202.48-.96 1.121-1.761 2.082-2.322.88-.56 2.002-.801 3.283-.801 1.12 0 2.081.24 2.802.8.8.481 1.361 1.202 1.841 2.083.32.641.48 1.282.561 2.083h-8.087c-.72 0-1.28.64-1.28 1.361s.56 1.362 1.36 1.362h-.08 9.688v-.24z"
      fill="#4BBAB8"
    />
    </svg>
  <svg fill="none" id="logoImg">
    <path
      d="M1.52 30.755h44.918c.88 0 1.521-.721 1.521-1.522V1.92c0-.88-.64-1.521-1.521-1.521-.88 0-1.602.64-1.602 1.521V26.27a1.52 1.52 0 01-1.52 1.521H4.642a1.52 1.52 0 01-1.52-1.521V1.92C3.122 1.041 2.4.32 1.52.4.72.4 0 1.12 0 1.92v27.312c0 .88.72 1.522 1.52 1.522z"
      fill="#4BBAB8"
    />
    <path
      d="M39.312 23.867c.88 0 1.521-.721 1.521-1.522V1.921c0-.88-.64-1.521-1.52-1.521-.882 0-1.602.64-1.602 1.521v17.38a1.52 1.52 0 01-1.521 1.522H11.85a1.52 1.52 0 01-1.522-1.521V1.922c0-.882-.72-1.602-1.601-1.522-.8 0-1.521.72-1.521 1.521v20.344c0 .88.72 1.522 1.52 1.522l30.586.08z"
      fill="#E4C9AA"
    />
    <path
      d="M46.438 27.791H1.52C.64 27.791 0 28.512 0 29.313v27.312c0 .88.64 1.521 1.52 1.521.881 0 1.602-.64 1.602-1.521V32.276c0-.88.72-1.521 1.521-1.521h38.672c.881 0 1.522.72 1.522 1.521v24.349c0 .88.72 1.601 1.6 1.521.802 0 1.522-.72 1.522-1.521V29.313c.08-.8-.64-1.522-1.521-1.522z"
      fill="#4BBAB8"
    />
    <path
      d="M8.727 34.76c-.88 0-1.521.72-1.521 1.521v20.344c0 .88.64 1.521 1.52 1.521.882 0 1.602-.64 1.602-1.521v-17.38c0-.881.72-1.522 1.521-1.522h24.34c.881 0 1.522.72 1.522 1.522v17.38c0 .88.72 1.601 1.601 1.521.8 0 1.521-.72 1.521-1.521V36.28a1.52 1.52 0 00-1.52-1.522H8.726z"
      fill="#E4C9AA"
    /></svg>
  <svg fill="none" id="facebook">
    <path
      d="M29.96 35.054h-4.61v-.181-14.234-.226H29.193c.18 0 .226-.046.27-.226.136-1.401.317-2.847.453-4.248 0-.18.045-.361.045-.587h-4.61v-.181-2.44c0-.317.046-.588.136-.904.09-.362.316-.633.678-.768.316-.09.678-.181.994-.181.813-.045 1.672 0 2.485 0 .272 0 .272 0 .272-.271V6.088v-.226H25.44c-.678 0-1.4.045-2.079.226-1.355.362-2.44 1.04-3.118 2.26a6.466 6.466 0 00-.813 2.891c-.045 1.266-.045 2.576-.045 3.841v.272h-2.938v5.06h2.576c.407 0 .362-.044.362.362v14.28H4.293c-.045 0-.09-.046-.136-.046C2.17 34.692.86 33.608.226 31.71c-.09-.317-.136-.633-.226-.95V4.959c0-.045.045-.09.045-.135.271-1.763 1.31-3.073 3.073-3.75C3.434.936 3.841.89 4.202.8H30.05c.045 0 .09.045.136.045 1.898.271 3.163 1.31 3.84 3.118.136.362.181.723.272 1.085V30.85c0 .045-.045.136-.045.18-.272 1.808-1.266 3.074-2.938 3.752-.406.135-.903.18-1.355.27z"
      fill="#E4C9AB"
    /></svg>
    <svg fill="none" id="linkedin">
        <path
        d="M0 32.116V3.738c0-.045.045-.135.045-.18.18-.814.588-1.447 1.22-1.989.497-.406 1.085-.632 1.672-.768h28.378c.046 0 .09.045.136.045.813.136 1.446.588 1.988 1.175.407.497.633 1.085.814 1.717v28.378c0 .046-.046.136-.046.181-.18.814-.587 1.446-1.22 1.988-.497.407-1.084.633-1.672.769H2.937c-.045 0-.09-.046-.135-.046-.814-.135-1.446-.587-1.989-1.174-.451-.498-.632-1.085-.813-1.718zm18.843-15.68v-1.898h-5.106v15.364h5.106v-.452-7.908c0-.316 0-.632.046-.949.135-.994.678-1.671 1.536-2.078.859-.407 1.717-.271 2.485.316.769.588 1.085 1.356 1.085 2.305v8.766H29.1v-.361-9.219c0-2.123-.858-3.796-2.576-5.016-1.852-1.31-4.112-1.581-6.19-.18-.497.361-.95.858-1.492 1.31zm-8.585 13.466V14.538H5.197v15.364h5.06zM10.8 8.528c-.045-1.717-1.31-3.073-3.073-3.073a3.076 3.076 0 00-3.073 3.073c0 1.762 1.356 3.073 3.073 3.073 1.672 0 3.073-1.4 3.073-3.073z"
        fill="#E4C9AB"
        />
  </svg>
</svg>
